<svg preserveAspectRatio="none" width="100%" height="100%" overflow="visible" style="display: block;" viewBox="0 0 100 109.589" fill="none" xmlns="http://www.w3.org/2000/svg">
<g id="Layer_1" clip-path="url(#clip0_1_39233)">
<path id="Vector" d="M95.8278 60.4132C92.174 53.8565 91.1313 46.2158 92.4303 38.8184C92.7572 36.9558 92.9295 35.0357 92.9295 33.0757C92.9295 14.8079 78.142 -9.91821e-05 59.8951 -9.91821e-05H40.1019C21.855 -9.91821e-05 7.06752 14.8079 7.06752 33.0801C7.06752 35.0401 7.23983 36.9558 7.56677 38.8228C8.8657 46.2158 7.82302 53.8609 4.16923 60.4177C1.51393 65.1782 -0.00148773 70.6687 -0.00148773 76.5087C-0.00148773 94.7765 14.786 109.589 33.0329 109.589H66.9641C85.2066 109.589 99.9985 94.7809 99.9985 76.5087C99.9985 70.6643 98.4831 65.1782 95.8278 60.4177V60.4132Z" fill="var(--fill-0, #EFEFEF)"/>
<path id="Vector_2" d="M56.211 24.2553C57.6486 24.2553 58.8141 22.9142 58.8141 21.2599C58.8141 19.6056 57.6486 18.2645 56.211 18.2645C54.7733 18.2645 53.6079 19.6056 53.6079 21.2599C53.6079 22.9142 54.7733 24.2553 56.211 24.2553Z" fill="var(--fill-0, #8B8B8B)"/>
<path id="Vector 4402" d="M29.0024 27.1454L35.0024 27.1454" stroke="var(--stroke-0, #DFDFDF)" stroke-width="9.58904" stroke-linecap="round"/>
<path id="Vector 4403" d="M65.0024 27.1454H71.0024" stroke="var(--stroke-0, #DFDFDF)" stroke-width="9.58904" stroke-linecap="round"/>
<path id="Vector_3" d="M43.2032 24.2553C44.6408 24.2553 45.8062 22.9142 45.8062 21.2599C45.8062 19.6056 44.6408 18.2645 43.2032 18.2645C41.7655 18.2645 40.6001 19.6056 40.6001 21.2599C40.6001 22.9142 41.7655 24.2553 43.2032 24.2553Z" fill="var(--fill-0, #8B8B8B)"/>
</g>
<defs>
<clipPath id="clip0_1_39233">
<rect width="100" height="109.589" fill="white"/>
</clipPath>
</defs>
</svg>
