<svg preserveAspectRatio="none" width="100%" height="100%" overflow="visible" style="display: block;" viewBox="0 0 100.002 52.0547" fill="none" xmlns="http://www.w3.org/2000/svg">
<path id="Union" d="M74.4528 0C88.5628 0 100.002 11.3465 100.002 25.3428C100.001 39.3389 88.5627 50.6846 74.4528 50.6846H26.9196C20.9245 50.6846 15.4125 48.6356 11.0544 45.2061C3.74252 44.9328 3.52194 51.9947 3.5202 52.0547C3.23472 51.8804 0.456661 50.1729 0.0368012 46.5459C-0.000459602 46.2104 -0.320312 43.0243 1.90204 40.5576C2.97572 39.3653 4.20928 38.8222 5.12469 38.5713C2.74421 34.7206 1.37084 30.1908 1.37079 25.3428C1.37079 11.3465 12.8096 0 26.9196 0H74.4528Z" fill="var(--fill-0, #EFEFEF)"/>
</svg>
