<svg preserveAspectRatio="none" width="100%" height="100%" overflow="visible" style="display: block;" viewBox="0 0 64 24" fill="none" xmlns="http://www.w3.org/2000/svg">
<path id="Vector (Stroke)" fill-rule="evenodd" clip-rule="evenodd" d="M39.0663 0.0247296C39.0664 0.02473 39.0665 0.0247303 39.0625 1.19279L39.0665 0.0247303C39.7062 0.0269389 40.2236 0.549248 40.2236 1.19279V9.06157C40.2236 9.70667 39.7038 10.2296 39.0625 10.2296H22.8815C22.2403 10.2296 21.7204 9.70667 21.7204 9.06157V1.19279C21.7204 0.834354 21.884 0.495765 22.1642 0.274317C22.355 0.123462 22.5491 0.0727848 22.5696 0.0674191C22.5704 0.067218 22.5709 0.0670806 22.5712 0.0670038C22.6275 0.0512143 22.6731 0.043063 22.6938 0.0395692C22.7384 0.0320416 22.775 0.028504 22.79 0.0271108C22.8252 0.0238529 22.8585 0.0221053 22.8801 0.0210959C22.9274 0.0188747 22.9863 0.017208 23.0497 0.0158287C23.1795 0.0130095 23.3623 0.0107057 23.5872 0.00879384C24.0385 0.00495672 24.6768 0.00256194 25.4375 0.00125717C26.9598 -0.00135393 28.9819 0.000387511 31.0004 0.00386471C33.0192 0.00734247 35.0357 0.0125589 36.5475 0.0169055C37.3033 0.0190788 37.9331 0.0210349 38.3738 0.0224477C38.5942 0.023154 38.7674 0.0237246 38.8854 0.0241186L39.0663 0.0247296ZM37.9015 2.35709C37.5213 2.35591 37.061 2.35452 36.5408 2.35302C35.0296 2.34868 33.014 2.34346 30.9964 2.33999C28.9785 2.33651 26.9597 2.33478 25.4415 2.33738C24.9041 2.3383 24.4305 2.33977 24.0426 2.34188V7.8935H37.9015V2.35709ZM0.422187 1.17251C0.422187 0.527408 0.94201 0.00444865 1.58324 0.00444865H17.9653C18.6066 0.00444865 19.1264 0.527408 19.1264 1.17251V9.11714C19.1264 9.76225 18.6066 10.2852 17.9653 10.2852C17.3241 10.2852 16.8043 9.76225 16.8043 9.11714V2.34058H10.5156V9.14244C10.5156 9.78754 9.99575 10.3105 9.35451 10.3105C8.71328 10.3105 8.19346 9.78754 8.19346 9.14244V2.34058H1.58324C0.94201 2.34058 0.422187 1.81762 0.422187 1.17251ZM44.1145 2.34058C43.4733 2.34058 42.9534 1.81762 42.9534 1.17251C42.9534 0.527408 43.4733 0.00444865 44.1145 0.00444865H60.4966C61.1378 0.00444865 61.6576 0.527408 61.6576 1.17251V9.05646C61.6576 9.70157 61.1378 10.2245 60.4966 10.2245C59.8553 10.2245 59.3355 9.70157 59.3355 9.05646V2.34058H53.0468V9.08176C53.0468 9.72686 52.527 10.2498 51.8858 10.2498C51.2445 10.2498 50.7247 9.72686 50.7247 9.08176V2.34058H44.1145ZM0 12.6724C0 12.0273 0.519823 11.5043 1.16106 11.5043C3.83278 11.5043 5.19771 11.7712 6.52188 12.0318L6.53525 12.0344C7.7761 12.2786 8.98133 12.5158 11.4407 12.5158C13.8994 12.5158 15.1034 12.2787 16.3432 12.0346L16.3576 12.0318C17.6813 11.7712 19.0462 11.5043 21.7204 11.5043C24.3945 11.5043 25.7594 11.7712 27.0832 12.0318L27.0975 12.0346C28.3373 12.2787 29.5413 12.5158 32 12.5158C34.4587 12.5158 35.6627 12.2787 36.9025 12.0346L36.9168 12.0318C38.2406 11.7712 39.6055 11.5043 42.2797 11.5043C44.9538 11.5043 46.3199 11.7712 47.6442 12.0318L47.6593 12.0347C48.8997 12.2788 50.1037 12.5158 52.5593 12.5158C55.0156 12.5158 56.2208 12.2787 57.4622 12.0345L57.4763 12.0317C58.8011 11.7712 60.1673 11.5043 62.8389 11.5043C63.4802 11.5043 64 12.0273 64 12.6724C64 13.3175 63.4802 13.8405 62.8389 13.8405C60.3827 13.8405 59.1774 14.0775 57.9361 14.3217L57.9219 14.3245C56.8492 14.5354 55.7495 14.7505 53.9516 14.8248V16.6204C55.4104 16.6225 56.808 16.625 57.9125 16.6272C58.6073 16.6286 59.1861 16.6298 59.5912 16.6307L60.2277 16.6322C60.2278 16.6322 60.2279 16.6322 60.2251 17.8002L60.2279 16.6322C60.868 16.6337 61.3862 17.1562 61.3862 17.8002V22.8219C61.3862 23.467 60.8663 23.99 60.2251 23.99H45.351C44.7098 23.99 44.19 23.467 44.19 22.8219V17.8002C44.19 17.3705 44.4245 16.9755 44.8006 16.7718C44.8723 16.7361 44.9898 16.6901 45.0341 16.6765C45.0631 16.6686 45.1126 16.657 45.1332 16.6528C45.174 16.6449 45.2068 16.6408 45.2215 16.6391C45.2533 16.6354 45.2797 16.6337 45.2911 16.6329C45.3175 16.6312 45.3434 16.6303 45.362 16.6297C45.4022 16.6284 45.4537 16.6273 45.5115 16.6265C45.629 16.6247 45.7957 16.6232 46.0021 16.622C46.4161 16.6196 47.0021 16.6181 47.7013 16.6172C48.8015 16.6159 50.1859 16.6163 51.6294 16.6176V14.8402C49.5521 14.7863 48.3596 14.5529 47.1985 14.3244L47.1851 14.3218C45.9443 14.0776 44.739 13.8405 42.2797 13.8405C39.821 13.8405 38.617 14.0775 37.3771 14.3216L37.3628 14.3244C36.1478 14.5636 34.8981 14.8081 32.6331 14.8466V16.627H39.3943C39.9691 16.627 40.4574 17.0501 40.5426 17.622C40.6278 18.1938 40.2842 18.7423 39.7347 18.9118L30.8141 21.6639H39.2837C39.925 21.6639 40.4448 22.1868 40.4448 22.8319C40.4448 23.477 39.925 24 39.2837 24H23.0676C22.4928 24 22.0045 23.5769 21.9193 23.0051C21.8341 22.4332 22.1776 21.8847 22.7272 21.7152L31.6478 18.9632H23.0876C22.4464 18.9632 21.9266 18.4402 21.9266 17.7951C21.9266 17.15 22.4464 16.627 23.0876 16.627H30.311V14.811C28.6848 14.7265 27.649 14.5236 26.6372 14.3244L26.6229 14.3216C25.383 14.0775 24.1791 13.8405 21.7204 13.8405C19.2617 13.8405 18.0577 14.0775 16.8178 14.3216L16.8035 14.3244C15.5733 14.5666 14.3076 14.8142 11.9885 14.848V22.7764C11.9885 23.4215 11.4687 23.9445 10.8274 23.9445C10.1862 23.9445 9.66638 23.4215 9.66638 22.7764V14.8064C8.08863 14.7193 7.07059 14.5201 6.07612 14.3244L6.06102 14.3215C4.82062 14.0774 3.61668 13.8405 1.16106 13.8405C0.519823 13.8405 0 13.3175 0 12.6724ZM59.064 18.9657C58.7338 18.965 58.3437 18.9642 57.9079 18.9633C56.5188 18.9606 54.666 18.9572 52.8112 18.955C50.9562 18.9528 49.1001 18.9517 47.704 18.9534C47.253 18.9539 46.8506 18.9547 46.5121 18.9559V21.6538H59.064V18.9657Z" fill="var(--fill-0, #EAFF84)"/>
</svg>
