<svg preserveAspectRatio="none" width="100%" height="100%" overflow="visible" style="display: block;" viewBox="0 0 18 19" fill="none" xmlns="http://www.w3.org/2000/svg">
<g id="Group 427320513">
<path id="Rectangle 26" d="M0 6.68421C0 5.00246 0 4.16159 0.473832 3.60214C0.545115 3.51797 0.623238 3.43985 0.707402 3.36857C1.26685 2.89474 2.10773 2.89474 3.78947 2.89474H14.2105C15.8923 2.89474 16.7331 2.89474 17.2926 3.36857C17.3768 3.43985 17.4549 3.51797 17.5262 3.60214C18 4.16159 18 5.00246 18 6.68421C18 7.10465 18 7.31487 17.8815 7.45473C17.8637 7.47577 17.8442 7.4953 17.8231 7.51312C17.6833 7.63158 17.4731 7.63158 17.0526 7.63158H0.947369C0.526932 7.63158 0.316713 7.63158 0.17685 7.51312C0.155809 7.4953 0.136279 7.47577 0.118458 7.45473C0 7.31487 0 7.10465 0 6.68421Z" fill="var(--fill-0, #DFDFDF)"/>
<path id="Rectangle 27" d="M0 15C0 16.8856 0 17.8284 0.585786 18.4142C1.17157 19 2.11438 19 4 19H14C15.8856 19 16.8284 19 17.4142 18.4142C18 17.8284 18 16.8856 18 15V10.5263C18 10.0549 18 9.81921 17.8536 9.67276C17.7071 9.52632 17.4714 9.52632 17 9.52632H1C0.528596 9.52632 0.292893 9.52632 0.146447 9.67276C0 9.81921 0 10.0549 0 10.5263V15Z" fill="var(--fill-0, #DFDFDF)"/>
<path id="Line 1" d="M4.5 1L4.5 3.84211" stroke="var(--stroke-0, #DFDFDF)" stroke-width="2" stroke-linecap="round"/>
<path id="Line 2" d="M13.5 1L13.5 3.84211" stroke="var(--stroke-0, #DFDFDF)" stroke-width="2" stroke-linecap="round"/>
</g>
</svg>
