<svg preserveAspectRatio="none" width="100%" height="100%" overflow="visible" style="display: block;" viewBox="0 0 20 20" fill="none" xmlns="http://www.w3.org/2000/svg">
<path id="Subtract" fill-rule="evenodd" clip-rule="evenodd" d="M0 5C0 2.23857 2.23857 0 5 0H15C17.7614 0 20 2.23857 20 5V15C20 17.7614 17.7614 20 15 20H5C2.23857 20 0 17.7614 0 15V5ZM10 4.64286C10.5917 4.64286 11.0714 5.12256 11.0714 5.71429V8.92857H14.2857C14.8774 8.92857 15.3571 9.40827 15.3571 10C15.3571 10.5917 14.8774 11.0714 14.2857 11.0714H11.0714V14.2857C11.0714 14.8774 10.5917 15.3571 10 15.3571C9.40827 15.3571 8.92857 14.8774 8.92857 14.2857V11.0714H5.71429C5.12256 11.0714 4.64286 10.5917 4.64286 10C4.64286 9.40827 5.12256 8.92857 5.71429 8.92857H8.92857V5.71429C8.92857 5.12256 9.40827 4.64286 10 4.64286Z" fill="var(--fill-0, #00A775)"/>
</svg>
