<svg preserveAspectRatio="none" width="100%" height="100%" overflow="visible" style="display: block;" viewBox="0 0 18 17" fill="none" xmlns="http://www.w3.org/2000/svg">
<g id="home-4--home-house-roof-shelter">
<g id="Vector 2">
<path id="Vector" d="M2.57227 15.6667V7.66667L9.07227 1L15.5723 7.66667V15.6667C15.5723 16.4031 14.9903 17 14.2723 17H3.87227C3.1543 17 2.57227 16.4031 2.57227 15.6667Z" fill="var(--fill-0, #0FD380)"/>
</g>
<path id="Vector 1 (Stroke)" fill-rule="evenodd" clip-rule="evenodd" d="M8.09087 0.366113C8.59298 -0.122038 9.40705 -0.122038 9.90916 0.366113L17.6234 7.86611C18.1255 8.35428 18.1255 9.14573 17.6234 9.63389C17.1214 10.122 16.3073 10.122 15.8052 9.63389L9.00002 3.01776L2.19486 9.63389C1.69275 10.122 0.878681 10.122 0.376577 9.63389C-0.125526 9.14573 -0.125526 8.35428 0.376577 7.86611L8.09087 0.366113Z" fill="var(--fill-0, #0FD380)"/>
</g>
</svg>
