<svg preserveAspectRatio="none" width="100%" height="100%" overflow="visible" style="display: block;" viewBox="0 0 13.9266 17" fill="none" xmlns="http://www.w3.org/2000/svg">
<g id="Vector">
<path d="M10.9633 4C10.9633 6.20914 9.17244 8 6.9633 8C4.75417 8 2.9633 6.20914 2.9633 4C2.9633 1.79086 4.75417 0 6.9633 0C9.17244 0 10.9633 1.79086 10.9633 4Z" fill="var(--fill-0, #0FD380)"/>
<path d="M0.359507 13.6661C1.01664 10.708 3.8774 9 6.90758 9H7.01903C10.0492 9 12.91 10.708 13.5671 13.6661C13.7321 14.4087 13.862 15.1979 13.9238 16.0009C13.9663 16.5515 13.5156 17 12.9633 17H0.963305C0.411021 17 -0.0396467 16.5515 0.00276839 16.0009C0.0646145 15.1979 0.19454 14.4087 0.359507 13.6661Z" fill="var(--fill-0, #0FD380)"/>
</g>
</svg>
