<svg preserveAspectRatio="none" width="100%" height="100%" overflow="visible" style="display: block;" viewBox="0 0 18 18.9996" fill="none" xmlns="http://www.w3.org/2000/svg">
<path id="Subtract" fill-rule="evenodd" clip-rule="evenodd" d="M9.41739 18.9053C11.1895 18.0658 18 14.4433 18 8.35371C18 3.74009 13.9706 0 9 0C4.02944 0 0 3.74009 0 8.35371C0 14.4433 6.81047 18.0658 8.58261 18.9053C8.84796 19.031 9.15204 19.031 9.41739 18.9053ZM8.9144 11.831C10.9973 11.831 12.6859 10.2562 12.6859 8.3136C12.6859 6.37102 10.9973 4.79625 8.9144 4.79625C6.83145 4.79625 5.14289 6.37102 5.14289 8.3136C5.14289 10.2562 6.83145 11.831 8.9144 11.831Z" fill="var(--fill-0, #DFDFDF)"/>
</svg>
