<svg preserveAspectRatio="none" width="100%" height="100%" overflow="visible" style="display: block;" viewBox="0 0 18 18" fill="none" xmlns="http://www.w3.org/2000/svg">
<path id="Vector" fill-rule="evenodd" clip-rule="evenodd" d="M0 9C0 4.02934 4.02934 0 9 0C13.9707 0 18 4.02934 18 9C18 13.9707 13.9707 18 9 18C4.02926 18 0 13.9707 0 9ZM9.9 4.5C9.9 3.80717 9.15 3.37416 8.55 3.72061C8.27151 3.88133 8.1 4.17849 8.1 4.5V7.88763C8.1 8.91015 8.67765 9.8449 9.59219 10.3023L12.1977 11.6046C12.8075 11.9334 13.5446 11.4788 13.5245 10.7863C13.5146 10.445 13.3123 10.1386 13.0023 9.99544L10.3977 8.6922C10.0929 8.53982 9.90015 8.22842 9.9 7.88763V4.5Z" fill="var(--fill-0, #DFDFDF)"/>
</svg>
