<svg preserveAspectRatio="none" width="100%" height="100%" overflow="visible" style="display: block;" viewBox="0 0 67.586 11.3359" fill="none" xmlns="http://www.w3.org/2000/svg">
<g id="Right Side">
<g id="Battery">
<path id="Rectangle" opacity="0.35" d="M45.0715 0.502563H62.51C63.7065 0.502713 64.676 1.47303 64.676 2.66956V8.66956C64.6759 9.86593 63.7064 10.8354 62.51 10.8356H45.0715C43.875 10.8356 42.9047 9.86602 42.9045 8.66956V2.66956C42.9045 1.47294 43.8749 0.502563 45.0715 0.502563Z" stroke="var(--stroke-0, #171717)"/>
<path id="Combined Shape" opacity="0.4" d="M66.2114 3.66925V7.66925C67.0443 7.33047 67.586 6.54238 67.586 5.66925C67.586 4.79612 67.0443 4.00803 66.2114 3.66925" fill="var(--fill-0, #171717)"/>
<path id="Rectangle_2" d="M44.4746 3.10256C44.4746 2.49505 44.9671 2.00256 45.5746 2.00256H62.0061C62.6136 2.00256 63.1061 2.49505 63.1061 3.10256V8.2359C63.1061 8.84341 62.6136 9.3359 62.0061 9.3359H45.5746C44.9671 9.3359 44.4746 8.84341 44.4746 8.2359V3.10256Z" fill="var(--fill-0, #171717)"/>
</g>
<path id="Wifi" fill-rule="evenodd" clip-rule="evenodd" d="M30.001 2.27733C32.2946 2.27742 34.5005 3.12886 36.1628 4.65566C36.288 4.77354 36.4881 4.77205 36.6114 4.65233L37.8079 3.48566C37.8703 3.42494 37.9051 3.34269 37.9046 3.25711C37.9041 3.17153 37.8683 3.08967 37.8052 3.02966C33.4422 -1.00989 26.5591 -1.00989 22.1961 3.02966C22.1329 3.08963 22.097 3.17146 22.0964 3.25704C22.0959 3.34262 22.1306 3.42489 22.193 3.48566L23.3899 4.65233C23.5131 4.77223 23.7133 4.77372 23.8384 4.65566C25.5009 3.12876 27.7071 2.27732 30.001 2.27733ZM30.001 6.07299C31.2612 6.07292 32.4764 6.52545 33.4105 7.34266C33.5369 7.45864 33.7359 7.45613 33.8591 7.33699L35.0543 6.17033C35.1172 6.10913 35.1521 6.02612 35.1512 5.93985C35.1503 5.85359 35.1136 5.77127 35.0494 5.71133C32.2048 3.15494 27.7995 3.15494 24.9549 5.71133C24.8907 5.77127 24.854 5.85363 24.8532 5.93992C24.8523 6.02621 24.8874 6.10922 24.9504 6.17033L26.1453 7.33699C26.2684 7.45613 26.4675 7.45864 26.5938 7.34266C27.5273 6.52599 28.7416 6.0735 30.001 6.07299ZM32.3951 8.62681C32.3969 8.71332 32.3617 8.79672 32.2978 8.85733L30.2304 10.873C30.1698 10.9322 30.0872 10.9656 30.001 10.9656C29.9148 10.9656 29.8321 10.9322 29.7715 10.873L27.7038 8.85733C27.6399 8.79668 27.6048 8.71325 27.6066 8.62674C27.6085 8.54023 27.6473 8.45831 27.7138 8.40033C29.0341 7.32144 30.9678 7.32144 32.2882 8.40033C32.3546 8.45836 32.3933 8.54031 32.3951 8.62681Z" fill="var(--fill-0, #171717)"/>
<path id="Mobile Signal" fill-rule="evenodd" clip-rule="evenodd" d="M16.5614 0.335938H15.5263C14.9546 0.335938 14.4912 0.783653 14.4912 1.33594V10.0026C14.4912 10.5549 14.9546 11.0026 15.5263 11.0026H16.5614C17.133 11.0026 17.5964 10.5549 17.5964 10.0026V1.33594C17.5964 0.783653 17.133 0.335938 16.5614 0.335938ZM10.6959 2.66927H11.731C12.3026 2.66927 12.766 3.11699 12.766 3.66927V10.0026C12.766 10.5549 12.3026 11.0026 11.731 11.0026H10.6959C10.1242 11.0026 9.66079 10.5549 9.66079 10.0026V3.66927C9.66079 3.11699 10.1242 2.66927 10.6959 2.66927ZM6.90056 5.0026H5.86548C5.29382 5.0026 4.83039 5.45032 4.83039 6.0026V10.0026C4.83039 10.5549 5.29382 11.0026 5.86548 11.0026H6.90056C7.47222 11.0026 7.93565 10.5549 7.93565 10.0026V6.0026C7.93565 5.45032 7.47222 5.0026 6.90056 5.0026ZM2.07017 7.0026H1.03508C0.463423 7.0026 0 7.45032 0 8.0026V10.0026C0 10.5549 0.463423 11.0026 1.03508 11.0026H2.07017C2.64183 11.0026 3.10525 10.5549 3.10525 10.0026V8.0026C3.10525 7.45032 2.64183 7.0026 2.07017 7.0026Z" fill="var(--fill-0, #171717)"/>
</g>
</svg>
